<?xml version="1.0" encoding="utf-8"?>
<!-- Generator: Adobe Illustrator 27.3.1, SVG Export Plug-In . SVG Version: 6.00 Build 0)  -->
<svg version="1.1" xmlns="http://www.w3.org/2000/svg" xmlns:xlink="http://www.w3.org/1999/xlink" x="0px" y="0px"
	 viewBox="0 0 1814.17 1814.17" style="enable-background:new 0 0 1814.17 1814.17;" xml:space="preserve">
<style type="text/css">
	.st0{fill:#E4E5D7;}
	.st1{clip-path:url(#SVGID_00000080906938957792431530000015521547756178714780_);fill:#F3CDBE;}
	.st2{clip-path:url(#SVGID_00000080906938957792431530000015521547756178714780_);fill:#E1D7D5;}
	.st3{clip-path:url(#SVGID_00000080906938957792431530000015521547756178714780_);fill:#EDECEB;}
	.st4{clip-path:url(#SVGID_00000080906938957792431530000015521547756178714780_);fill:#E2C9B5;}
</style>
<g id="Warstwa_2_kopia">
	<rect x="-0.01" y="-0.01" class="st0" width="1814.17" height="1814.17"/>
</g>
<g id="Warstwa_3">
	<g>
		<defs>
			<rect id="SVGID_1_" x="-0.01" y="-0.01" width="1814.17" height="1814.17"/>
		</defs>
		<clipPath id="SVGID_00000090265991834508170070000004157457596175605157_">
			<use xlink:href="#SVGID_1_"  style="overflow:visible;"/>
		</clipPath>
		<path style="clip-path:url(#SVGID_00000090265991834508170070000004157457596175605157_);fill:#F3CDBE;" d="M39.38-107.28
			c-8.25,4.23-16.64,8.71-25.19,13.52c-42.77,24.05-77.88,49.4-107.7,74.34c18.08,28.77,39.5,64.37,64.47,109.38
			c6.01,10.83,11.71,21.29,17.16,31.43C209.58,0.55,218.33-24.9,291.59-28.91c90.27-4.94,194.28,27.29,281.26,86.12
			c5.44-46.15,3.37-93.61-7.47-140.16c-3.11-13.34-14.9-60.79-45.3-114.09c-81.08,38.82-184.58,63.85-250.1,74.46
			C240.42-117.79,143.55-102.1,39.38-107.28z"/>
		<path style="clip-path:url(#SVGID_00000090265991834508170070000004157457596175605157_);fill:#E1D7D5;" d="M-75.87,605.13
			c140.21,42.58,207.39,157.08,270.23,250.92c71.15-9.16,124.63-27.94,144.06-34.77c1.09-0.38,2.18-0.77,3.27-1.16
			c-52.29-36.88-94.65-89.08-100.54-150.14c-11.66-120.76,123.42-232.75,241.37-266.59c9.42-2.7,18.82-4.92,28.18-6.7
			c-1.45-75.02,15.83-149.21,57.82-212.02c19.94-29.82,43.67-54.41,70.18-74.46c-20.32-19.45-42.47-37.19-65.85-53
			c-14.48,122.77-82.25,236.36-180.39,299.35c-32.47,20.84-126.11,80.94-216.15,50.44C98.75,380.72,89.14,309.32-11.88,121.4
			c-28.44,15.52-60.37,32.61-96.42,51.43c-14.22,7.42-27.63,14.37-40.3,20.88c28.02,50.76,41.27,90.83,22.28,137.63
			c-32.24,79.49-137.47,129.27-254.73,152.02c10.08,40.91,28.7,82.94,53.56,123.22C-245.12,583.98-155.35,581-75.87,605.13z"/>
		<path style="clip-path:url(#SVGID_00000090265991834508170070000004157457596175605157_);fill:#EDECEB;" d="M799.54,828.49
			c-15.35-24.29-109.03,36.99-226.67,50.2c-2.49,1.99-4.95,3.98-7.4,5.99c35.23,6.27,83.95,18.28,158.51,34.92
			C770.43,877.66,809.89,844.86,799.54,828.49z"/>
		<path style="clip-path:url(#SVGID_00000090265991834508170070000004157457596175605157_);fill:#E2C9B5;" d="M68.23,1313.33
			c82.79,21.98,121.64-32.35,219.75-39.63c15.24-1.13,30.72-1.03,46.27,0.15c-11.45-99,2.23-202.73,40.38-279.65
			c-0.07,0-0.13,0-0.2,0c-81.36,0.01-129.31-62.33-180.09-138.16c-95.47,12.3-222.75,7.28-342.28-67.19
			c-71.03-44.25-135.21-110.46-179.55-182.28c-118.26,32.46-221.22,105.4-256.35,196.69c-17.77,46.16-29.97,127.6,10.81,165.72
			c81.29,75.98,292.22-95.75,378.26-21.62c57.83,49.83-14.77,146.92,25.12,248.31c18.32-16.34,36.97-25.97,54.14-26.44
			C-54,1167.55-41.39,1284.23,68.23,1313.33z"/>
		<path style="clip-path:url(#SVGID_00000090265991834508170070000004157457596175605157_);fill:#EDECEB;" d="M1214.07,900.36
			c-28.74-7.56-62.2-16.27-101.52-26.07c-91.67-22.85-160.6-38.02-213.61-48.92c22.87,10.18,43.16,24.95,55.51,46.35
			c14.9,25.83,17.06,59.25,9.19,96.57c178.07,31.92,202.05,25.23,254.38,64.03c10.95,8.12,21.6,17.1,31.9,26.82
			c1.26-29.14-0.22-58.18-3.54-85.75c-1.79-1.37-3.54-2.82-5.22-4.4C1223.25,952.25,1215.56,927.15,1214.07,900.36z"/>
		<path style="clip-path:url(#SVGID_00000090265991834508170070000004157457596175605157_);fill:#F3CDBE;" d="M506.79,880.34
			c9.97-1.04,20.9-0.8,33.88,0.65c10.9-0.32,21.64-1.11,32.19-2.3c48.68-38.85,106.14-73.09,190.64-75.42
			c3.36-0.09,11.83-0.32,23.5,0.03c-54.34-10.98-75.71-18.21-107.49-43.44c-30.13-23.92-57.65-54.52-81.34-89.63
			c-82.13,71.22-180.45,122.71-256.49,149.89c30.89,21.78,65.24,38.23,97.6,48C462.03,874.98,484.64,878.8,506.79,880.34z"/>
		<path style="clip-path:url(#SVGID_00000090265991834508170070000004157457596175605157_);fill:#EDECEB;" d="M-207.97,1906.9
			c30.83-31.3,65.51-71.18,114.46-112.14c-52.5-83.57-76.79-109.57-77.9-141.42c-34-20.37-62.3-47.75-80.98-84.23
			c-28.05-54.77-29.84-121.12-16.55-183.89c-18.62,6.35-37.17,14.69-55.5,25.38c-10.67,6.22-21.02,13.1-31.03,20.56
			c5.83,49.8,13.74,106.04,27.43,166.77C-296.48,1738-249.54,1834.06-207.97,1906.9z"/>
		<path style="clip-path:url(#SVGID_00000090265991834508170070000004157457596175605157_);fill:#F3CDBE;" d="M565.38,1731.23
			c-3.11-13.34-14.9-60.79-45.3-114.09c-81.08,38.82-184.58,63.85-250.1,74.46c-29.55,4.79-126.42,20.47-230.59,15.3
			c-8.25,4.23-16.64,8.71-25.19,13.52c-42.77,24.05-77.88,49.4-107.7,74.34c18.08,28.77,39.5,64.37,64.47,109.38
			c6.01,10.83,11.71,21.29,17.16,31.43c221.46-120.85,230.21-146.3,303.46-150.31c90.27-4.94,194.28,27.29,281.26,86.12
			C578.29,1825.23,576.22,1777.78,565.38,1731.23z"/>
		<path style="clip-path:url(#SVGID_00000090265991834508170070000004157457596175605157_);fill:#EDECEB;" d="M540.68,880.99
			c-11.15,0.32-22.46,0.14-33.88-0.65c-13.72,1.44-25.63,5.32-38.6,11.91c-39.7,20.17-70.93,56.35-93.55,101.96
			c78.07-0.11,127.6-57.63,190.83-109.52C556.38,883.06,548.18,881.83,540.68,880.99z"/>
		<path style="clip-path:url(#SVGID_00000090265991834508170070000004157457596175605157_);fill:#EDECEB;" d="M931.34,1615.95
			c-1.72-68.53,83.29-83.09,295.41-277.39c69.49-63.65,105.17-103.12,131.16-120.57c-26.42-61.8-63.93-117.23-107.99-158.85
			c-3.38,78.06-26.42,156.7-86.52,208.86c-105.13,91.24-283.69,66.78-411.5,1.37c-17.27,13.81-35.08,26.65-53.22,38.26
			c-40.82,26.11-84.75,46.86-130.42,62.75c45.89,38.55,74.82,83.11,72.78,123.09c-2.49,48.89-51.21,89.29-115.21,120.88
			c80.32,63.22,160.56,92.97,185.29,102.13c94.93,35.19,243.06,63.65,378.22,42.63C1018.22,1712.14,933.05,1684.11,931.34,1615.95z"
			/>
		<path style="clip-path:url(#SVGID_00000090265991834508170070000004157457596175605157_);fill:#E1D7D5;" d="M963.64,968.29
			c-48.22-8.64-107.73-20.12-182.17-36.09c-20.72-4.45-39.82-8.65-57.48-12.59c-60.21,54.38-132.18,124.15-122.59,193.48
			c7.72,55.81,68.72,114.43,150.49,156.28C857.8,1184.71,943.52,1063.74,963.64,968.29z"/>
		<path style="clip-path:url(#SVGID_00000090265991834508170070000004157457596175605157_);fill:#EDECEB;" d="M520.07,1617.13
			c1.93-0.92,3.85-1.86,5.75-2.8c-4.81-3.79-9.63-7.7-14.43-11.74C514.44,1607.48,517.33,1612.33,520.07,1617.13z"/>
		<path style="clip-path:url(#SVGID_00000090265991834508170070000004157457596175605157_);fill:#EDECEB;" d="M89.85,1435.82
			c2.87,1.26,6.99,3.08,12.08,5.38c91.11-17.8,190.98-11.41,276.12,34.25c14.03,7.52,27.04,15.79,39.12,24.6
			c-18.67-26.96-35.35-56.91-48.88-90.13c-244.15,15.89-483.64-76.93-537.82-213.97c-0.04-0.09-0.07-0.18-0.1-0.27
			c-42.18,37.61-82.62,110.77-99.31,189.54C-131.66,1338.4,9.07,1400.29,89.85,1435.82z"/>
		<path style="clip-path:url(#SVGID_00000090265991834508170070000004157457596175605157_);fill:#E1D7D5;" d="M273.57,1590.73
			c8.02-63.4-124.15-128.01-171.65-149.53c-136.79,26.72-253.81,107.97-271.46,192.76c-1.45,6.97-2.09,13.29-1.88,19.38
			c59.75,35.79,137.09,49.9,210.8,53.56C174.04,1637.91,267.03,1642.49,273.57,1590.73z"/>
		<path style="clip-path:url(#SVGID_00000090265991834508170070000004157457596175605157_);fill:#F3CDBE;" d="M334.26,1273.85
			c4.27,36.9,12.03,73.14,23.31,107.09c3.3,9.93,6.88,19.58,10.71,28.98c67.58-4.4,135.51-17.12,199.97-39.54
			C508.65,1320.31,420.45,1280.39,334.26,1273.85z"/>
		<path style="clip-path:url(#SVGID_00000090265991834508170070000004157457596175605157_);fill:#EDECEB;" d="M511.39,1602.6
			c-22.13-35.4-52.62-72.22-94.23-102.55C445.36,1540.77,478.1,1574.64,511.39,1602.6z"/>
		<path style="clip-path:url(#SVGID_00000090265991834508170070000004157457596175605157_);fill:#EDECEB;" d="M1478.22,293.91
			c31.04-22.87,84.42-47.28,187.37-100.2c-16.04-29.06-36.93-61.63-59.38-100.98c-40.09,40.71-73.67,66.92-123.68,62.09
			c-95.67-9.23-149.78-122.21-154.91-133.29c-61.9-133.85,8.32-313.09,131.08-404.54c-14.64-125.11-16.1-209.57-62.63-222.3
			c-35.09-9.6-61.56,30.98-169.32,129.69c-212.12,194.31-297.13,208.87-295.41,277.39c2.71,107.76,214.01,115.21,248.57,255.78
			c2.13,8.68,3.43,17.23,4,25.67c8.6,3.12,16.86,6.31,24.74,9.53C1242.6,106.61,1382.44,163.75,1478.22,293.91z"/>
		<path style="clip-path:url(#SVGID_00000090265991834508170070000004157457596175605157_);fill:#E2C9B5;" d="M1606.2,92.73
			c30.83-31.3,65.51-71.18,114.46-112.14c-52.5-83.57-76.79-109.57-77.9-141.42c-34-20.37-62.3-47.75-80.98-84.23
			c-28.05-54.77-29.84-121.11-16.55-183.89c-18.62,6.35-37.17,14.69-55.5,25.38c-10.67,6.22-21.02,13.1-31.03,20.56
			c5.83,49.8,13.74,106.04,27.43,166.77C1517.69-76.17,1564.63,19.89,1606.2,92.73z"/>
		<path style="clip-path:url(#SVGID_00000090265991834508170070000004157457596175605157_);fill:#F3CDBE;" d="M1853.56-107.28
			c-8.25,4.23-16.64,8.71-25.19,13.52c-42.77,24.05-77.88,49.4-107.7,74.34c18.08,28.77,39.5,64.37,64.47,109.38
			c6.01,10.83,11.71,21.29,17.16,31.43C2023.76,0.55,2032.5-24.9,2105.76-28.91c90.27-4.94,194.28,27.29,281.26,86.12
			c5.44-46.15,3.37-93.61-7.47-140.16c-3.11-13.34-14.9-60.79-45.3-114.09c-81.08,38.82-184.58,63.85-250.1,74.46
			C2054.59-117.79,1957.72-102.1,1853.56-107.28z"/>
		<path style="clip-path:url(#SVGID_00000090265991834508170070000004157457596175605157_);fill:#E1D7D5;" d="M2206.63,356.56
			c-32.47,20.84-126.11,80.94-216.15,50.44c-77.56-26.28-87.16-97.68-188.18-285.59c-28.44,15.52-60.37,32.61-96.42,51.43
			c-14.22,7.42-27.63,14.37-40.3,20.88c28.02,50.76,41.27,90.83,22.28,137.63c-20.52,50.6-70.64,89.17-134.6,116.39
			c12.58,45.34,19,94.19,19.46,142.89c56.28-5.52,113.17-1.39,165.58,14.52c140.21,42.58,207.39,157.08,270.23,250.92
			c71.15-9.16,124.63-27.94,144.06-34.77c1.09-0.38,2.18-0.77,3.27-1.16c-52.29-36.88-94.65-89.08-100.54-150.14
			c-11.66-120.76,123.42-232.75,241.37-266.59c93.85-26.92,185.24-6.75,269.49,32.37c7.55-34.32,9.46-70.38,4.3-108.02
			c-15.41-112.37-89.5-206.98-183.46-270.53C2372.54,179.98,2304.77,293.57,2206.63,356.56z"/>
		<path style="clip-path:url(#SVGID_00000090265991834508170070000004157457596175605157_);fill:#E2C9B5;" d="M2415.58,1113.09
			c-16.99-122.81,221.91-246.99,198.14-284.6c-15.35-24.29-109.03,36.99-226.67,50.2c-66.89,53.39-117.23,115.5-198.43,115.51
			c-81.36,0.01-129.31-62.33-180.09-138.16c-95.47,12.3-222.75,7.28-342.28-67.19c-36.98-23.04-72.11-52.04-103.55-84.68
			c-19.28,100.51-66.08,186.56-138.37,220.33c-42.77,19.99-73.52,11.89-190.21-18.88c5.08,20.83,9.36,43.72,12.25,67.75
			c84.76,64.57,288.78-98.62,373.04-26.01c57.83,49.83-14.77,146.92,25.12,248.31c18.32-16.34,36.97-25.97,54.14-26.44
			c61.5-1.69,74.11,114.99,183.73,144.1c82.79,21.98,121.64-32.35,219.75-39.63c99.7-7.39,209.92,37.57,280.26,96.67
			c45.67-15.89,89.6-36.64,130.42-62.75c18.15-11.61,35.95-24.45,53.22-38.26C2484.3,1227.52,2423.3,1168.9,2415.58,1113.09z"/>
		<path style="clip-path:url(#SVGID_00000090265991834508170070000004157457596175605157_);fill:#EDECEB;" d="M1482.53,1968.99
			c-95.67-9.23-149.78-122.21-154.91-133.29c-26.79-57.92-28.81-124.34-12.57-188.47c-58.47,64.88-139.45,98.46-225.72,111.88
			c41.31,27.29,77.88,60.96,90.58,112.62c37.97,154.4-186.24,270.38-147.7,360.25c31.83,74.23,229.26,98.87,400.93,65.56
			c-12.47-50.62-11.87-99.51,6.15-141.21c22.34-51.67,58.38-62.12,226.29-148.44c-16.04-29.06-36.93-61.63-59.38-100.98
			C1566.11,1947.61,1532.53,1973.81,1482.53,1968.99z"/>
		<path style="clip-path:url(#SVGID_00000090265991834508170070000004157457596175605157_);fill:#EDECEB;" d="M1390.45,1497.38
			c20.08-25.01,43.06-47.46,68.24-66.22c-14.64-125.11-16.1-209.57-62.63-222.3c-12.46-3.41-23.84-0.48-38.16,9.13
			C1395.29,1305.44,1410.44,1405.62,1390.45,1497.38z"/>
		<path style="clip-path:url(#SVGID_00000090265991834508170070000004157457596175605157_);fill:#E2C9B5;" d="M1458.7,1431.16
			c5.83,49.8,13.74,106.04,27.43,166.77c31.56,140.07,78.51,236.13,120.07,308.97c30.83-31.3,65.51-71.18,114.46-112.14
			c-52.5-83.57-76.79-109.57-77.9-141.42c-34-20.37-62.3-47.75-80.98-84.23c-28.05-54.77-29.84-121.12-16.55-183.89
			c-18.62,6.35-37.17,14.69-55.5,25.38C1479.06,1416.82,1468.71,1423.7,1458.7,1431.16z"/>
		<path style="clip-path:url(#SVGID_00000090265991834508170070000004157457596175605157_);fill:#EDECEB;" d="M1390.45,1497.38
			c-35.43,44.13-61.81,96.18-75.4,149.84c11.92-13.23,22.92-27.75,32.83-43.68C1368.44,1570.49,1382.34,1534.63,1390.45,1497.38z"/>
		<path style="clip-path:url(#SVGID_00000090265991834508170070000004157457596175605157_);fill:#F3CDBE;" d="M1853.56,1706.9
			c-8.25,4.23-16.64,8.71-25.19,13.52c-42.77,24.05-77.88,49.4-107.7,74.34c18.08,28.77,39.5,64.37,64.47,109.38
			c6.01,10.83,11.71,21.29,17.16,31.43c221.46-120.85,230.2-146.3,303.46-150.31c90.27-4.94,194.28,27.29,281.26,86.12
			c5.44-46.16,3.37-93.61-7.47-140.16c-3.11-13.34-14.9-60.79-45.3-114.09c-81.08,38.82-184.58,63.85-250.1,74.46
			C2054.59,1696.38,1957.72,1712.07,1853.56,1706.9z"/>
		<path style="clip-path:url(#SVGID_00000090265991834508170070000004157457596175605157_);fill:#F3CDBE;" d="M756.31,327.74
			c5.16,37.64,3.25,73.7-4.3,108.02c83.14,38.61,159.32,95.67,224.06,144.16c100.02,74.92,194.01,145.34,241.31,270.95
			c3.06-17.57,7.78-34.09,12.97-47.59c35.14-91.29,138.09-164.23,256.35-196.69c-24.86-40.28-43.48-82.31-53.56-123.22
			c-171.67,33.31-369.1,8.67-400.93-65.56c-36.38-84.82,161.29-192.9,151.71-334.58C1037.16,29.91,791.58-5.4,638.7,110.21
			C700.05,168.94,744.74,243.33,756.31,327.74z"/>
		<path style="clip-path:url(#SVGID_00000090265991834508170070000004157457596175605157_);fill:#EDECEB;" d="M752.01,435.76
			c-75.79-35.19-157.36-55.04-241.31-39.07c1.89,97.5,35.41,196.4,87.48,273.55C671.46,606.69,731.85,527.44,752.01,435.76z"/>
		<path style="clip-path:url(#SVGID_00000090265991834508170070000004157457596175605157_);fill:#EDECEB;" d="M787.02,803.3
			c27.22,5.5,62.71,11.95,111.92,22.07C860.48,808.26,814.72,804.13,787.02,803.3z"/>
		<path style="clip-path:url(#SVGID_00000090265991834508170070000004157457596175605157_);fill:#EDECEB;" d="M1550.97,439.72
			c-16.74-56.49-42.56-104.78-72.76-145.81c-19.59,14.43-30.28,28.25-38.92,48.24c-18.03,41.7-18.63,90.6-6.15,141.21
			c42.6-8.27,83.62-20.1,120.13-35.64C1552.52,445.05,1551.76,442.38,1550.97,439.72z"/>
		<path style="clip-path:url(#SVGID_00000090265991834508170070000004157457596175605157_);fill:#EDECEB;" d="M1214.07,900.36
			c6.96,1.83,13.64,3.59,20.06,5.28c-2.94-12.05-6.14-23.43-9.49-33.92c-2.28-7.12-4.71-14.06-7.26-20.85
			C1214.57,866.98,1213.16,883.99,1214.07,900.36z"/>
		<path style="clip-path:url(#SVGID_00000090265991834508170070000004157457596175605157_);fill:#EDECEB;" d="M1572.72,590.61
			c-29.07,2.85-57.97,8.27-86.02,15.97c21.25,34.42,47.06,67.55,76,97.6C1569.72,667.63,1573.09,629.17,1572.72,590.61z"/>
		<path style="clip-path:url(#SVGID_00000090265991834508170070000004157457596175605157_);fill:#EDECEB;" d="M1644.64,1195.95
			c-0.04-0.09-0.07-0.18-0.1-0.27c-42.18,37.61-82.62,110.77-99.31,189.54c137.28-46.82,278.01,15.07,358.79,50.6
			c2.87,1.26,6.99,3.08,12.08,5.38c91.11-17.8,190.98-11.41,276.12,34.25c68.99,36.99,113.63,91.89,142.03,141.69
			c66.81-31.99,118.39-73.33,120.96-123.67c2.03-39.97-26.89-84.54-72.78-123.09C2085.08,1473.8,1713.81,1370.92,1644.64,1195.95z"
			/>
		<path style="clip-path:url(#SVGID_00000090265991834508170070000004157457596175605157_);fill:#E1D7D5;" d="M1644.64,1633.96
			c-1.45,6.97-2.09,13.29-1.88,19.38c59.75,35.79,137.09,49.9,210.79,53.56c134.65-68.99,227.64-64.41,234.19-116.17
			c8.02-63.4-124.15-128.01-171.65-149.53C1779.31,1467.92,1662.29,1549.17,1644.64,1633.96z"/>
	</g>
</g>
</svg>
